<?xml version="1.0" encoding="utf-8"?>
<!-- Generator: Adobe Illustrator 19.2.1, SVG Export Plug-In . SVG Version: 6.00 Build 0)  -->
<svg version="1.1" id="layer" xmlns="http://www.w3.org/2000/svg" xmlns:xlink="http://www.w3.org/1999/xlink" x="0px" y="0px"
	 viewBox="0 0 652 652" style="enable-background:new 0 0 652 652;" xml:space="preserve">
<style type="text/css">
	.st0{fill:#006CB7;}
	.st1{fill:#FFFFFF;}
</style>
<g>
	<path d="M260.3,381.9l0-37.6H260c-1.3,1.2-6.3,1.3-8.4,1.3H248v0.3c4.2,2.6,3.6,6.4,3.6,11.1l0,15.9c0,8-7.8,13.6-14.1,13.6
		c-8.3,0-11.8-5.9-11.8-15.4v-26.8h-0.3c-1.3,1.2-6.3,1.3-8.4,1.3h-3.6v0.3c4.2,2.6,3.6,6.4,3.6,11.1v15.9
		c0,14.5,6.3,21.4,17.6,21.4c6.7,0,13.6-2.4,17-8v6.9H264v-0.3C259.8,390.4,260.3,386.6,260.3,381.9"/>
	<path d="M314.1,367.7c0.4-13.3-8.5-23.3-21.5-23.3c-14.2,0-23.9,10.3-23.9,24.7c0,14.4,11.2,25.4,27.4,25.4c4.5,0,9.1-0.7,13.2-2.6
		l4.8-9.7h-0.3c-4.4,3.7-9.9,5.5-15.7,5.5c-10.8,0-18.9-7.4-19.1-20H314.1z M279.4,361.7c1.1-6.5,5.9-10.6,12.3-10.6
		c6.9,0,11.3,3.4,12.3,10.6H279.4z"/>
	<path d="M321.6,322.4c2.3,0,7-0.1,8.4-1.5h0.3V386c2.6,0.7,5.2,1.2,7.9,1.2c10.4,0,16.4-7.3,16.4-17.5c0-10-4.6-17.7-14.2-17.7
		c-3,0-5.4,0.8-8,2.3l5.1-8.8c2.2-0.8,4.5-1.1,6.7-1.1c10.8,0,20,9.4,20,23.5c0,16.1-10.9,26.6-28.2,26.6c-6.5,0-12.6-1.1-17.3-1.9
		v-0.3c3.1-1.5,2.9-4.9,2.9-8.3v-47.4c0-4.8,0.6-11.4-3.5-14v-0.3H321.6z"/>
	<path d="M415.9,367.7c0.4-13.3-8.5-23.3-21.5-23.3c-14.2,0-23.9,10.3-23.9,24.7c0,14.4,11.2,25.4,27.4,25.4c4.5,0,9.1-0.7,13.2-2.6
		l4.8-9.7h-0.3c-4.4,3.7-9.9,5.5-15.7,5.5c-10.8,0-18.9-7.4-19.1-20H415.9z M381.2,361.7c1.1-6.5,5.9-10.6,12.3-10.6
		c6.9,0,11.3,3.4,12.3,10.6H381.2z"/>
	<path d="M458.6,356.2h-0.3c-2.8-3.4-7.4-5.1-11.7-5.1c-9.3,0-15.9,7-15.9,16.9c0,11.9,9.3,19.7,19.9,19.7c4.9,0,10.2-2.1,14-5.1
		h0.3l-5,9.8c-4,1.6-8.4,2-12.6,2c-14.7,0-26.2-10.4-26.2-23.8c0-17.8,12.8-26.3,27.2-26.3c3.4,0,7,0.4,10.3,1.2V356.2z"/>
	<path d="M302.1,335.9v-10.3c-6.3,2.8-12.1,8.1-16,13.2v4C295.5,336.5,302.1,336.2,302.1,335.9"/>
	<path d="M223.6,403.2c-10.6,1.7-20.9-1.6-31.8-14.1c10.5-5.3,17-18.4,17-30.6V357c-0.2-20.9-15.9-34.7-34.6-34.7
		c-18.7,0-35.3,14.4-35.4,35.4c0,0.1,0,1.3,0,1.4c0,20.5,15.2,35.7,33.8,35.7c2.7,0,5.2-0.4,7.8-1c12.2,11.4,23.1,16.3,32.5,15.2
		c4.5-0.5,9.2-2.3,12-6L223.6,403.2z M174.2,387.4c-14.4,0-24.5-16.3-24.5-30.1c0-0.1,0-1.4,0-1.6c0.2-13.4,8.8-26,24-26
		c15.9,0,24.1,15.1,24.3,29.3v1.5C198,375.8,188.5,387.4,174.2,387.4"/>
	<path d="M30.8,248.2h2.7c3.6,0,5.5-1.4,5.5-3.6c0-1.9-1.3-2.9-3.9-2.9h-2.9L30.8,248.2z M36.5,236.5c6.7,0,10.1,2.3,10.1,7
		c0,4.1-2.8,6.7-7.7,7.1c1.9,1.1,2.4,2.5,2.8,4.4l2.1,9.5h-7.4l-2-9c-0.4-1.6-1.3-2.1-3.4-2.1h-1.3l-2.3,11.2H20l5.9-28H36.5z"/>
	<path d="M60.3,235.1h7.6v0.9l-6.7,4.9h-4.8v-0.5L60.3,235.1z M63.4,251.1c0-2.3-1.4-3.8-3.6-3.8c-2.2,0-4.1,1.7-4.9,4.7h8.4
		C63.4,251.7,63.4,251.4,63.4,251.1 M54,256c0.3,3.1,2,4.5,5.3,4.5c2.2,0,4.7-0.5,7.1-1.6l-0.8,5.1c-2.5,0.8-5,1.2-7.7,1.2
		c-6.5,0-10.4-3.8-10.4-9.7c0-3.4,1.5-6.9,3.7-9.1c2.2-2.1,5.3-3.3,9.2-3.3c5.8,0,8.9,3.3,8.9,9c0,1.2-0.2,2.5-0.5,4H54z"/>
	<path d="M84.4,248.6c-2.8,0-5.2,3-5.2,7.2c0,2.4,1.5,4,3.6,4c2.9,0,5.5-3,5.5-6.9C88.3,250.3,86.7,248.6,84.4,248.6 M97.6,243.8
		l-4.4,20.8c-1.3,6-6.2,8.2-12.7,8.2c-2.7,0-5.4-0.5-8.2-1.5l1.3-5.4c1.8,1.2,4,1.8,6.5,1.8c3.8,0,6.8-1.8,7.6-7.4
		c-2.1,2.8-4.7,4.2-7.8,4.2c-4.9,0-8.1-3.5-8.1-9.1c0-3,0.8-5.7,2.4-7.9c2-2.8,5-4.4,8.6-4.4c3,0,5.4,1.4,6.8,4.1l0.8-3.5H97.6z"/>
</g>
<path d="M111,236.5l-0.7,3.7h-7.1l0.7-3.7H111z M109.5,243.8l-4.5,20.8h-7.1l4.5-20.8H109.5z"/>
<g>
	<path d="M127.2,251.1c0-2.3-1.4-3.8-3.6-3.8c-2.2,0-4.1,1.7-4.9,4.7h8.4C127.1,251.7,127.2,251.4,127.2,251.1 M117.7,256
		c0.3,3.1,2,4.5,5.3,4.5c2.2,0,4.7-0.5,7.1-1.6l-0.8,5.1c-2.5,0.8-5,1.2-7.7,1.2c-6.5,0-10.4-3.8-10.4-9.7c0-3.4,1.5-6.9,3.7-9.1
		c2.2-2.1,5.3-3.3,9.3-3.3c5.8,0,8.9,3.3,8.9,9c0,1.2-0.2,2.5-0.5,4H117.7z"/>
	<path d="M33.7,289c-2.8,0-5.2,3-5.2,7.2c0,2.4,1.5,4,3.6,4c2.9,0,5.5-3,5.5-7C37.6,290.7,36,289,33.7,289 M48.4,276.9l-5.9,28H36
		l0.8-3.5c-2,2.7-4.6,4.1-7.6,4.1c-4.9,0-8.1-3.5-8.1-9.3c0-7.6,4.6-12.7,11-12.7c3,0,5.4,1.4,6.8,4.1l2.3-10.8H48.4z"/>
	<path d="M58.5,284.2l-2.2,10.4c-0.2,0.7-0.2,1.4-0.2,2.1c0,2,1,3.1,2.7,3.1c2.6,0,4.7-2.3,5.6-6.8l1.9-8.8h7.3L69.1,305h-6.5
		l0.8-3.5c-2.3,2.7-5,4-7.9,4c-4.3,0-6.8-2.6-6.8-7.2c0-1.4,0.2-3.3,0.8-5.8l1.7-8.3H58.5z"/>
	<path d="M101.2,289c-2.9,0-5.5,3-5.5,6.8c0,2.7,1.5,4.4,3.8,4.4c2.8,0,5.2-3,5.2-7C104.8,290.6,103.4,289,101.2,289 M99.4,276.9
		l-2.2,9.9c1.9-2.1,4.2-3.2,6.9-3.2c4.9,0,8.1,3.6,8.1,9.3c0,7.5-4.5,12.6-11,12.6c-3.3,0-5.7-1.6-7.3-4.8l-1,4.2h-6.5l5.9-28H99.4z
		"/>
	<path d="M126.4,295.4c-3.9,0-5.9,1.1-5.9,3.2c0,1.4,1.1,2.3,2.7,2.3c2.5,0,4.8-2,5.3-5.5C127.8,295.4,127.1,295.4,126.4,295.4
		 M125.9,275.5h6.5l3.5,5.3v0.5h-4.5l-2.5-3.2l-3.5,3.2h-5v-0.5L125.9,275.5z M134.4,299.7c-0.3,1.5-0.7,3.2-0.9,5.3h-6l0.4-3.2
		c-1.6,2.4-4.1,3.6-7.2,3.6c-4.3,0-7-2.5-7-6.2c0-4.6,4.3-7.6,12.2-7.6c1,0,2.2,0.1,3.4,0.2c0-0.2,0-0.5,0-0.7c0-2.1-1.4-3.2-4-3.2
		c-2.4,0-4.7,0.5-6.8,1.6l0.9-4.9c2.3-0.8,4.5-1.2,6.9-1.2c6.3,0,9.7,2.6,9.7,6.6c0,1-0.2,2.3-0.4,3.7L134.4,299.7z"/>
	<path d="M150.9,284.2h5.1l-1.1,5h-5.1l-1.5,7.2c-0.2,0.9-0.3,1.5-0.3,1.8c0,1.5,0.7,2.1,2.3,2.1c0.6,0,1.4-0.1,2.4-0.4l-1.1,5
		c-1.7,0.3-3,0.4-4,0.4c-4.3,0-6.8-2.3-6.8-6.3c0-0.7,0.1-1.4,0.2-2.1l1.7-7.8h-4.2l1.1-5h4.2l1.1-4.9l7.6-2L150.9,284.2z"/>
</g>
<path d="M168.8,276.9l-0.7,3.7H161l0.7-3.7H168.8z M167.3,284.2l-4.5,20.8h-7.1l4.5-20.8H167.3z"/>
<g>
	<path d="M202.3,305h-6.9l2.2-10.4c0.2-1.1,0.4-1.9,0.4-2.6c0-1.5-0.8-2.5-2.2-2.5c-1.1,0-2.1,0.5-2.8,1.4c-1.2,1.5-1.4,3.4-1.8,5.3
		l-1.9,8.8H182l2.2-10.4c0.2-1.1,0.3-2,0.3-2.8c0-1.4-0.8-2.2-2.2-2.2c-2.2,0-3.5,1.7-4.2,5.1l-2.2,10.3h-7.4l4.4-21h6.2l-0.8,3.8
		c2.3-2.8,4.5-4.1,7.3-4.1c3,0,4.9,1.4,5.7,4.1c2.3-2.8,4.4-4.1,7.4-4.1c3.9,0,6.3,2.5,6.3,6.5c0,1.3-0.2,2.2-0.3,2.8L202.3,305z"/>
	<path d="M224.1,291.5c0-2.3-1.4-3.8-3.6-3.8c-2.2,0-4.1,1.7-4.9,4.7h8.4C224,292.1,224.1,291.8,224.1,291.5 M214.6,296.4
		c0.3,3.1,2,4.5,5.3,4.5c2.2,0,4.7-0.5,7.1-1.6l-0.8,5.1c-2.5,0.8-5,1.2-7.7,1.2c-6.5,0-10.4-3.8-10.4-9.7c0-3.4,1.5-6.9,3.7-9.1
		c2.2-2.1,5.3-3.3,9.3-3.3c5.8,0,8.9,3.3,8.9,9c0,1.2-0.2,2.5-0.5,4H214.6z"/>
	<path d="M253.6,305h-7.2l2.2-10.4c0.2-0.8,0.2-1.5,0.2-2.1c0-2-1-3.1-2.6-3.1c-2.9,0-4.8,2.3-5.7,6.8l-1.9,8.8h-7.3l4.4-21h6.5
		l-0.8,3.7c2.3-2.7,5-4,7.9-4c4.3,0,6.8,2.6,6.8,7.3c0,1.3-0.2,3.2-0.8,5.7L253.6,305z"/>
	<path d="M271.3,284.2h5.1l-1.1,5h-5.1l-1.5,7.2c-0.2,0.9-0.3,1.5-0.3,1.8c0,1.5,0.6,2.1,2.3,2.1c0.6,0,1.4-0.1,2.4-0.4l-1.1,5
		c-1.7,0.3-3,0.4-4,0.4c-4.3,0-6.8-2.3-6.8-6.3c0-0.7,0.1-1.4,0.2-2.1l1.7-7.8h-4.2l1.1-5h4.2l1.1-4.9l7.6-2L271.3,284.2z"/>
</g>
<rect x="487.4" y="305.3" class="st0" width="57.9" height="35.5"/>
<g>
	<path class="st1" d="M516.3,307.1c-0.4,0.8-1.4,1.9-3,3.9c-1.8,2.3-1.5,5.4-0.7,7.2c1,2.1,1.6,3.8,2,5.5c0.6,2.4,0.2,5.6,0.3,5.3
		h-1.6c0-3.9-1.2-7.6-4.2-9.2c-4.2-2.3-8.3,1.7-7,5.9c0.7,2.2,1.9,2.9,2.3,2.9c0,0-0.6-2.4,1.2-3.7c1.6-1.2,3.7-0.5,4.6,0.9
		c0.9,1.3,1,3.1,1,3.1h-3v2.2l6.1,0c0,0-0.2,3.2-3.5,2.8c0,0,0.4,2.5,3.5,1.2c0,0-0.2,2.6,1.9,3.9c2.1-1.3,1.9-3.9,1.9-3.9
		c3.1,1.3,3.5-1.2,3.5-1.2c-3.3,0.3-3.5-2.8-3.5-2.8l6.1,0V329h-3c0,0,0.1-1.8,1-3.1c0.9-1.4,3-2.1,4.6-0.9c1.7,1.2,1.2,3.7,1.2,3.7
		c0.4,0,1.6-0.8,2.3-2.9c1.3-4.2-2.8-8.2-7-5.9c-3,1.6-4.2,5.3-4.2,9.2h-1.6c0,0.3-0.4-2.9,0.3-5.3c0.5-1.7,1-3.4,2-5.5
		c0.9-1.8,1.2-4.9-0.6-7.2C517.7,309,516.7,307.9,516.3,307.1"/>
</g>
<rect x="562.1" y="305.3" class="st0" width="57.9" height="35.5"/>
<g>
	<path class="st1" d="M591,307.1c-0.4,0.8-1.4,1.9-3,3.9c-1.9,2.3-1.5,5.4-0.6,7.2c1,2.1,1.6,3.8,2,5.5c0.6,2.4,0.2,5.6,0.3,5.3
		h-1.6c0-3.9-1.2-7.6-4.2-9.2c-4.2-2.3-8.3,1.7-7,5.9c0.7,2.2,1.9,2.9,2.3,2.9c0,0-0.6-2.4,1.2-3.7c1.6-1.2,3.7-0.5,4.6,0.9
		c0.9,1.3,1,3.1,1,3.1h-3v2.2l6.1,0c0,0-0.2,3.2-3.5,2.8c0,0,0.4,2.5,3.5,1.2c0,0-0.2,2.6,2,3.9c2.1-1.3,1.9-3.9,1.9-3.9
		c3.1,1.3,3.5-1.2,3.5-1.2c-3.3,0.3-3.5-2.8-3.5-2.8l6.1,0V329h-3c0,0,0.2-1.8,1-3.1c0.9-1.4,3-2.1,4.6-0.9c1.7,1.2,1.2,3.7,1.2,3.7
		c0.3,0,1.6-0.8,2.3-2.9c1.3-4.2-2.8-8.2-7-5.9c-2.9,1.6-4.2,5.3-4.2,9.2h-1.6c0,0.3-0.4-2.9,0.3-5.3c0.4-1.7,1-3.4,2-5.5
		c0.9-1.8,1.2-4.9-0.7-7.2C592.4,309,591.5,307.9,591,307.1"/>
</g>
<rect x="487.4" y="357.6" class="st0" width="57.9" height="35.5"/>
<g>
	<path class="st1" d="M516.3,359.5c-0.4,0.8-1.4,1.9-3,3.9c-1.8,2.3-1.5,5.4-0.7,7.2c1,2.1,1.6,3.8,2,5.5c0.6,2.4,0.2,5.6,0.3,5.3
		h-1.6c0-3.9-1.2-7.6-4.2-9.2c-4.2-2.3-8.3,1.7-7,5.9c0.7,2.2,1.9,2.9,2.3,2.9c0,0-0.6-2.4,1.2-3.7c1.6-1.2,3.7-0.5,4.6,0.9
		c0.9,1.3,1,3.1,1,3.1h-3v2.2l6.1,0c0,0-0.2,3.1-3.5,2.8c0,0,0.4,2.5,3.5,1.2c0,0-0.2,2.6,1.9,3.9c2.1-1.3,1.9-3.9,1.9-3.9
		c3.1,1.3,3.5-1.2,3.5-1.2c-3.3,0.3-3.5-2.8-3.5-2.8l6.1,0v-2.2h-3c0,0,0.1-1.8,1-3.1c0.9-1.4,3-2.1,4.6-0.9
		c1.7,1.2,1.2,3.7,1.2,3.7c0.4,0,1.6-0.7,2.3-2.9c1.3-4.2-2.8-8.2-7-5.9c-3,1.6-4.2,5.3-4.2,9.2h-1.6c0,0.3-0.4-2.9,0.3-5.3
		c0.5-1.7,1-3.4,2-5.5c0.9-1.8,1.2-4.9-0.6-7.2C517.7,361.4,516.7,360.3,516.3,359.5"/>
</g>
<rect x="562.1" y="357.6" class="st0" width="57.9" height="35.5"/>
<g>
	<path class="st1" d="M591,359.5c-0.4,0.8-1.4,1.9-3,3.9c-1.9,2.3-1.5,5.4-0.6,7.2c1,2.1,1.6,3.8,2,5.5c0.6,2.4,0.2,5.6,0.3,5.3
		h-1.6c0-3.9-1.2-7.6-4.2-9.2c-4.2-2.3-8.3,1.7-7,5.9c0.7,2.2,1.9,2.9,2.3,2.9c0,0-0.6-2.4,1.2-3.7c1.6-1.2,3.7-0.5,4.6,0.9
		c0.9,1.3,1,3.1,1,3.1h-3v2.2l6.1,0c0,0-0.2,3.1-3.5,2.8c0,0,0.4,2.5,3.5,1.2c0,0-0.2,2.6,2,3.9c2.1-1.3,1.9-3.9,1.9-3.9
		c3.1,1.3,3.5-1.2,3.5-1.2c-3.3,0.3-3.5-2.8-3.5-2.8l6.1,0v-2.2h-3c0,0,0.2-1.8,1-3.1c0.9-1.4,3-2.1,4.6-0.9
		c1.7,1.2,1.2,3.7,1.2,3.7c0.3,0,1.6-0.7,2.3-2.9c1.3-4.2-2.8-8.2-7-5.9c-2.9,1.6-4.2,5.3-4.2,9.2h-1.6c0,0.3-0.4-2.9,0.3-5.3
		c0.4-1.7,1-3.4,2-5.5c0.9-1.8,1.2-4.9-0.7-7.2C592.4,361.4,591.5,360.3,591,359.5"/>
</g>
</svg>
